<?xml version="1.0" encoding="UTF-8" standalone="no"?>
<svg
   xmlns:dc="http://purl.org/dc/elements/1.1/"
   xmlns:cc="http://creativecommons.org/ns#"
   xmlns:rdf="http://www.w3.org/1999/02/22-rdf-syntax-ns#"
   xmlns:svg="http://www.w3.org/2000/svg"
   xmlns="http://www.w3.org/2000/svg"
   xmlns:sodipodi="http://sodipodi.sourceforge.net/DTD/sodipodi-0.dtd"
   xmlns:inkscape="http://www.inkscape.org/namespaces/inkscape"
   inkscape:version="1.0 (4035a4fb49, 2020-05-01)"
   sodipodi:docname="icon-heart.svg"
   id="svg22"
   version="1.1"
   fill="none"
   viewBox="0 0 20 19"
   height="19"
   width="20">
  <metadata
     id="metadata28">
    <rdf:RDF>
      <cc:Work
         rdf:about="">
        <dc:format>image/svg+xml</dc:format>
        <dc:type
           rdf:resource="http://purl.org/dc/dcmitype/StillImage" />
      </cc:Work>
    </rdf:RDF>
  </metadata>
  <defs
     id="defs26" />
  <sodipodi:namedview
     inkscape:current-layer="svg22"
     inkscape:window-maximized="1"
     inkscape:window-y="-8"
     inkscape:window-x="-8"
     inkscape:cy="9.5"
     inkscape:cx="13.654706"
     inkscape:zoom="44.736842"
     showgrid="false"
     id="namedview24"
     inkscape:window-height="1017"
     inkscape:window-width="1920"
     inkscape:pageshadow="2"
     inkscape:pageopacity="0"
     guidetolerance="10"
     gridtolerance="10"
     objecttolerance="10"
     borderopacity="1"
     bordercolor="#666666"
     pagecolor="#ffffff" />
  <path
     id="path32"
     d="M 6.6953125 0.7265625 C 5.8393344 0.7265625 4.9986763 0.89349274 4.2109375 1.2207031 C 3.4498046 1.5358233 2.7605968 1.991754 2.171875 2.5683594 C 1.5823027 3.1438954 1.1109084 3.829171 0.78515625 4.5859375 C 0.4472587 5.3711263 0.2734375 6.2139948 0.2734375 7.0722656 C 0.2734375 7.8915497 0.44082954 8.7250641 0.75585938 9.5488281 C 1.0192479 10.236431 1.3873523 10.926175 1.8476562 11.613281 L 1.8476562 11.615234 C 2.5776009 12.70348 3.5530163 13.800914 4.7460938 14.902344 C 5.7345504 15.815153 6.7097046 16.579141 7.4511719 17.125 C 8.1926391 17.670859 8.5937913 17.932729 8.7695312 18.041016 L 9.2421875 18.34375 C 9.7852521 18.690398 10.482319 18.690418 11.025391 18.34375 L 11.027344 18.34375 L 11.513672 18.03125 C 11.617701 17.964542 13.542692 16.727684 15.521484 14.902344 C 16.71449 13.800932 17.691915 12.703503 18.421875 11.615234 L 18.421875 11.613281 C 18.881266 10.92744 19.251057 10.236531 19.513672 9.5449219 C 19.827604 8.7229765 19.99584 7.8916567 19.996094 7.0742188 C 19.998469 6.2142065 19.824301 5.3711903 19.486328 4.5859375 L 19.484375 4.5859375 L 19.484375 4.5839844 C 19.157838 3.8279512 18.68834 3.144206 18.099609 2.5683594 C 17.512599 1.9929306 16.820021 1.5353033 16.060547 1.2207031 C 15.273094 0.89362298 14.428845 0.72485509 13.576172 0.7265625 L 13.574219 0.7265625 C 12.380935 0.72691335 11.213466 1.0551324 10.199219 1.6738281 C 10.177232 1.687243 10.158525 1.7050842 10.136719 1.71875 C 10.114426 1.704774 10.094749 1.6875427 10.072266 1.6738281 C 9.0575175 1.0547837 7.8892647 0.7265625 6.6953125 0.7265625 z M 6.6953125 2.7265625 C 7.5241603 2.7265625 8.328965 2.9536238 9.0292969 3.3808594 C 9.1969029 3.4830978 9.3560067 3.5952789 9.5058594 3.7167969 L 10.134766 4.2265625 L 10.765625 3.7167969 C 10.915271 3.5953939 11.072609 3.4831345 11.240234 3.3808594 C 11.940643 2.953607 12.747324 2.7265625 13.576172 2.7265625 L 13.578125 2.7265625 C 14.166595 2.7252074 14.749417 2.8406338 15.292969 3.0664062 L 15.292969 3.0683594 L 15.294922 3.0683594 C 15.818657 3.2850476 16.294479 3.5993397 16.699219 3.9960938 L 16.701172 3.9980469 C 17.104042 4.3921002 17.424974 4.8595663 17.648438 5.3769531 C 17.880865 5.9169803 17.997719 6.4799916 17.996094 7.0683594 L 17.996094 7.0703125 L 17.996094 7.0722656 C 17.996094 7.6192815 17.883433 8.2093984 17.644531 8.8339844 L 17.644531 8.8359375 C 17.447726 9.3542338 17.14905 9.918605 16.759766 10.5 C 16.143926 11.418132 15.27061 12.413805 14.166016 13.433594 C 12.333008 15.124454 10.489565 16.311765 10.433594 16.347656 L 10.134766 16.541016 L 9.8261719 16.34375 L 9.8183594 16.337891 C 9.9140894 16.396877 9.333879 16.026913 8.6367188 15.513672 C 7.9395585 15.000431 7.018859 14.278885 6.1035156 13.433594 C 4.9996705 12.414542 4.1255511 11.419569 3.5097656 10.501953 L 3.5078125 10.5 C 3.1199525 9.9206925 2.8230112 9.3556304 2.6230469 8.8339844 L 2.6230469 8.8320312 C 2.3847027 8.2081545 2.2734375 7.6186981 2.2734375 7.0722656 C 2.2734375 6.4821565 2.3906244 5.9170444 2.6230469 5.3769531 L 2.6210938 5.3769531 C 2.8436274 4.8599773 3.1655155 4.3910972 3.5683594 3.9980469 L 3.5703125 3.9980469 L 3.5703125 3.9960938 C 3.9786307 3.5961791 4.4493354 3.2866392 4.9765625 3.0683594 L 4.9785156 3.0664062 C 5.5242568 2.8397166 6.0947306 2.7265625 6.6953125 2.7265625 z M 9.9492188 16.658203 C 9.9504068 16.657445 9.9519299 16.658945 9.953125 16.658203 L 9.9492188 16.660156 L 9.9492188 16.658203 z "
     style="color:#000000;font-style:normal;font-variant:normal;font-weight:normal;font-stretch:normal;font-size:medium;line-height:normal;font-family:sans-serif;font-variant-ligatures:normal;font-variant-position:normal;font-variant-caps:normal;font-variant-numeric:normal;font-variant-alternates:normal;font-variant-east-asian:normal;font-feature-settings:normal;font-variation-settings:normal;text-indent:0;text-align:start;text-decoration:none;text-decoration-line:none;text-decoration-style:solid;text-decoration-color:#000000;letter-spacing:normal;word-spacing:normal;text-transform:none;writing-mode:lr-tb;direction:ltr;text-orientation:mixed;dominant-baseline:auto;baseline-shift:baseline;text-anchor:start;white-space:normal;shape-padding:0;shape-margin:0;inline-size:0;clip-rule:nonzero;display:inline;overflow:visible;visibility:visible;isolation:auto;mix-blend-mode:normal;color-interpolation:sRGB;color-interpolation-filters:linearRGB;solid-color:#000000;solid-opacity:1;vector-effect:none;fill:#000000;fill-opacity:1;fill-rule:nonzero;stroke:none;stroke-width:2;stroke-linecap:butt;stroke-linejoin:miter;stroke-miterlimit:4;stroke-dasharray:none;stroke-dashoffset:0;stroke-opacity:1;color-rendering:auto;image-rendering:auto;shape-rendering:auto;text-rendering:auto;enable-background:accumulate;stop-color:#000000;stop-opacity:1;opacity:1" />
</svg>
