<svg width="15" height="14" viewBox="0 0 15 14" fill="none" xmlns="http://www.w3.org/2000/svg">
<path d="M11.375 4.375V3.5C11.375 1.57008 9.80489 0 7.875 0C5.94508 0 4.375 1.57008 4.375 3.5V4.375H1.75V11.8125C1.75 13.0206 2.72937 14 3.9375 14H11.8125C13.0206 14 14 13.0206 14 11.8125V4.375H11.375ZM6.125 3.5C6.125 2.53504 6.91004 1.75 7.875 1.75C8.83996 1.75 9.625 2.53504 9.625 3.5V4.375H6.125V3.5ZM10.5 6.78125C10.1376 6.78125 9.84375 6.48744 9.84375 6.125C9.84375 5.76256 10.1376 5.46875 10.5 5.46875C10.8624 5.46875 11.1562 5.76256 11.1562 6.125C11.1562 6.48744 10.8624 6.78125 10.5 6.78125ZM5.25 6.78125C4.88756 6.78125 4.59375 6.48744 4.59375 6.125C4.59375 5.76256 4.88756 5.46875 5.25 5.46875C5.61244 5.46875 5.90625 5.76256 5.90625 6.125C5.90625 6.48744 5.61244 6.78125 5.25 6.78125Z" fill="black"/>
</svg>
