<svg width="15" height="14" viewBox="0 0 15 14" fill="none" xmlns="http://www.w3.org/2000/svg">
<g clip-path="url(#clip0)">
<path fill-rule="evenodd" clip-rule="evenodd" d="M2.58797 12.579C2.56852 12.8284 2.62049 13.0781 2.73778 13.299C2.85507 13.5199 3.03285 13.7029 3.25031 13.8264C3.46777 13.95 3.71592 14.0091 3.96574 13.9968C4.21555 13.9845 4.4567 13.9013 4.66097 13.757L7.83397 11.871L11.004 13.757C11.2085 13.9013 11.4499 13.9844 11.6999 13.9967C11.9499 14.009 12.1982 13.9499 12.4159 13.8264C12.6336 13.703 12.8118 13.5201 12.9295 13.2993C13.0473 13.0784 13.0998 12.8286 13.081 12.579V1.75C13.0811 1.52015 13.0359 1.29253 12.948 1.08015C12.8601 0.86777 12.7312 0.674799 12.5687 0.51227C12.4062 0.349742 12.2132 0.220843 12.0008 0.132943C11.7884 0.0450442 11.5608 -0.00013117 11.331 2.86067e-07H4.33697C4.10721 2.48512e-07 3.87969 0.0452726 3.66743 0.133231C3.45516 0.221189 3.26231 0.350108 3.09989 0.512624C2.93747 0.67514 2.80866 0.868066 2.72082 1.08038C2.63298 1.29269 2.58784 1.52023 2.58797 1.75V12.579Z" fill="black"/>
</g>
<defs>
<clipPath id="clip0">
<rect width="14" height="14" fill="white" transform="translate(0.75)"/>
</clipPath>
</defs>
</svg>
