<svg width="12" height="12" viewBox="0 0 12 12" fill="none" xmlns="http://www.w3.org/2000/svg">
<path d="M11.2532 9.93886L9.15002 7.83566C9.05509 7.74073 8.92641 7.68799 8.7914 7.68799H8.44755C9.02978 6.94333 9.37574 6.0067 9.37574 4.9878C9.37574 2.56395 7.41177 0.599976 4.98792 0.599976C2.56407 0.599976 0.600098 2.56395 0.600098 4.9878C0.600098 7.41164 2.56407 9.37562 4.98792 9.37562C6.00682 9.37562 6.94345 9.02965 7.68812 8.44742V8.79128C7.68812 8.92629 7.74085 9.05497 7.83578 9.1499L9.93898 11.2531C10.1373 11.4514 10.4579 11.4514 10.6541 11.2531L11.2511 10.6561C11.4494 10.4578 11.4494 10.1372 11.2532 9.93886ZM4.98792 7.68799C3.49648 7.68799 2.28772 6.48134 2.28772 4.9878C2.28772 3.49636 3.49437 2.2876 4.98792 2.2876C6.47936 2.2876 7.68812 3.49425 7.68812 4.9878C7.68812 6.47923 6.48146 7.68799 4.98792 7.68799Z" fill="#939393"/>
</svg>
