<svg width="16" height="16" viewBox="0 0 16 16" fill="none" xmlns="http://www.w3.org/2000/svg">
<g clip-path="url(#clip0)">
<path d="M15.8444 6.4332H15.2V6.4H8V9.6H12.5212C11.8616 11.4628 10.0892 12.8 8 12.8C5.3492 12.8 3.2 10.6508 3.2 8C3.2 5.3492 5.3492 3.2 8 3.2C9.2236 3.2 10.3368 3.6616 11.1844 4.4156L13.4472 2.1528C12.0184 0.8212 10.1072 0 8 0C3.582 0 0 3.582 0 8C0 12.418 3.582 16 8 16C12.418 16 16 12.418 16 8C16 7.4636 15.9448 6.94 15.8444 6.4332Z" fill="#FFC107"/>
<path d="M0.922241 4.2764L3.55064 6.204C4.26184 4.4432 5.98424 3.2 7.99984 3.2C9.22344 3.2 10.3366 3.6616 11.1842 4.4156L13.447 2.1528C12.0182 0.8212 10.107 0 7.99984 0C4.92704 0 2.26224 1.7348 0.922241 4.2764Z" fill="#FF3D00"/>
<path d="M8.00011 16.0001C10.0665 16.0001 11.9441 15.2093 13.3637 13.9233L10.8877 11.8281C10.0575 12.4595 9.0431 12.8009 8.00011 12.8001C5.91931 12.8001 4.15251 11.4733 3.48691 9.6217L0.878113 11.6317C2.20211 14.2225 4.89091 16.0001 8.00011 16.0001Z" fill="#4CAF50"/>
<path d="M15.8444 6.43322H15.2V6.40002H8V9.60002H12.5212C12.2057 10.4866 11.6373 11.2613 10.8864 11.8284L10.8876 11.8276L13.3636 13.9228C13.1884 14.082 16 12 16 8.00002C16 7.46362 15.9448 6.94002 15.8444 6.43322Z" fill="#1976D2"/>
</g>
<defs>
<clipPath id="clip0">
<rect width="16" height="16" fill="white"/>
</clipPath>
</defs>
</svg>
