<svg width="15" height="14" viewBox="0 0 15 14" fill="none" xmlns="http://www.w3.org/2000/svg">
<g clip-path="url(#clip0)">
<path d="M1.59497 11.949V10.943C1.61363 10.5765 1.73212 10.2221 1.93762 9.91804C2.14313 9.61401 2.42784 9.37194 2.76097 9.218C5.96266 7.93196 9.53729 7.93196 12.739 9.218C13.0721 9.37194 13.3568 9.61401 13.5623 9.91804C13.7678 10.2221 13.8863 10.5765 13.905 10.943V11.949C13.9048 12.2186 13.8516 12.4856 13.7482 12.7347C13.6448 12.9837 13.4934 13.2099 13.3025 13.4004C13.1117 13.5909 12.8852 13.7419 12.6359 13.8448C12.3867 13.9476 12.1196 14.0004 11.85 14H3.64997C3.38033 14.0004 3.11326 13.9476 2.86401 13.8448C2.61477 13.7419 2.38825 13.5909 2.1974 13.4004C2.00655 13.2099 1.85511 12.9837 1.75174 12.7347C1.64837 12.4856 1.5951 12.2186 1.59497 11.949ZM7.74997 1.46266e-07C7.07352 -0.000197648 6.4122 0.200214 5.84965 0.575888C5.2871 0.951562 4.84859 1.48562 4.58959 2.11053C4.33058 2.73544 4.26271 3.42311 4.39456 4.0866C4.52641 4.75008 4.85206 5.35956 5.33031 5.83795C5.80857 6.31635 6.41795 6.64217 7.08139 6.77421C7.74484 6.90625 8.43254 6.83859 9.05752 6.57976C9.6825 6.32094 10.2167 5.88259 10.5925 5.32015C10.9684 4.75772 11.169 4.09646 11.169 3.42C11.1691 2.97093 11.0808 2.52623 10.909 2.1113C10.7372 1.69637 10.4854 1.31934 10.1679 1.00176C9.85043 0.684166 9.47347 0.432235 9.0586 0.260352C8.64372 0.0884683 8.19904 1.27058e-07 7.74997 1.46266e-07Z" fill="black"/>
</g>
<defs>
<clipPath id="clip0">
<rect width="14" height="14" fill="white" transform="translate(0.75)"/>
</clipPath>
</defs>
</svg>
